<mxfile host="app.diagrams.net" agent="Mozilla/5.0 (Windows NT 10.0; Win64; x64) AppleWebKit/537.36 (KHTML, like Gecko) Chrome/136.0.0.0 Safari/537.36" version="27.0.6">
  <diagram name="Page-1" id="dpGwUtLGYqmD2AURmN1E">
    <mxGraphModel dx="2688" dy="970" grid="1" gridSize="10" guides="1" tooltips="1" connect="1" arrows="1" fold="1" page="1" pageScale="1" pageWidth="850" pageHeight="1100" math="0" shadow="0">
      <root>
        <mxCell id="0" />
        <mxCell id="1" parent="0" />
        <mxCell id="tNOeazSKzZnn_q3BJgtX-1" value="&lt;b&gt;Supplier&lt;/b&gt;" style="rounded=0;whiteSpace=wrap;html=1;" vertex="1" parent="1">
          <mxGeometry x="-110" y="220" width="120" height="50" as="geometry" />
        </mxCell>
        <mxCell id="tNOeazSKzZnn_q3BJgtX-4" value="&lt;b&gt;PurchaseOrderDetails&lt;/b&gt;" style="rounded=0;whiteSpace=wrap;html=1;" vertex="1" parent="1">
          <mxGeometry x="150" y="567.5" width="130" height="50" as="geometry" />
        </mxCell>
        <mxCell id="tNOeazSKzZnn_q3BJgtX-5" value="&lt;b&gt;PurchaseOrder&lt;/b&gt;" style="rounded=0;whiteSpace=wrap;html=1;" vertex="1" parent="1">
          <mxGeometry x="30" y="720" width="120" height="50" as="geometry" />
        </mxCell>
        <mxCell id="tNOeazSKzZnn_q3BJgtX-6" value="&lt;b&gt;SalesOrder&lt;/b&gt;" style="rounded=0;whiteSpace=wrap;html=1;" vertex="1" parent="1">
          <mxGeometry x="1090" y="415" width="120" height="50" as="geometry" />
        </mxCell>
        <mxCell id="tNOeazSKzZnn_q3BJgtX-7" value="&lt;b&gt;Inventory&lt;/b&gt;" style="rounded=0;whiteSpace=wrap;html=1;" vertex="1" parent="1">
          <mxGeometry x="720" y="720" width="120" height="50" as="geometry" />
        </mxCell>
        <mxCell id="tNOeazSKzZnn_q3BJgtX-8" value="&lt;b&gt;Products&lt;/b&gt;" style="rounded=0;whiteSpace=wrap;html=1;" vertex="1" parent="1">
          <mxGeometry x="425" y="400" width="120" height="50" as="geometry" />
        </mxCell>
        <mxCell id="tNOeazSKzZnn_q3BJgtX-9" value="&lt;b&gt;Shipment&lt;/b&gt;" style="rounded=0;whiteSpace=wrap;html=1;" vertex="1" parent="1">
          <mxGeometry x="1090" y="810" width="120" height="50" as="geometry" />
        </mxCell>
        <mxCell id="tNOeazSKzZnn_q3BJgtX-10" value="&lt;b&gt;SalesOrderDetails&lt;/b&gt;" style="rounded=0;whiteSpace=wrap;html=1;" vertex="1" parent="1">
          <mxGeometry x="790" y="300" width="120" height="50" as="geometry" />
        </mxCell>
        <mxCell id="tNOeazSKzZnn_q3BJgtX-18" value="&lt;b&gt;SUPPLIES&lt;/b&gt;" style="rhombus;whiteSpace=wrap;html=1;" vertex="1" parent="1">
          <mxGeometry x="100" y="360" width="100" height="65" as="geometry" />
        </mxCell>
        <mxCell id="tNOeazSKzZnn_q3BJgtX-19" value="" style="endArrow=classic;html=1;rounded=0;exitX=1;exitY=0.5;exitDx=0;exitDy=0;entryX=0;entryY=0.5;entryDx=0;entryDy=0;" edge="1" parent="1" source="tNOeazSKzZnn_q3BJgtX-1" target="tNOeazSKzZnn_q3BJgtX-18">
          <mxGeometry width="50" height="50" relative="1" as="geometry">
            <mxPoint x="400" y="520" as="sourcePoint" />
            <mxPoint x="450" y="470" as="targetPoint" />
          </mxGeometry>
        </mxCell>
        <mxCell id="tNOeazSKzZnn_q3BJgtX-20" value="" style="endArrow=classic;html=1;rounded=0;exitX=1;exitY=0.5;exitDx=0;exitDy=0;entryX=0;entryY=0.75;entryDx=0;entryDy=0;" edge="1" parent="1" source="tNOeazSKzZnn_q3BJgtX-18" target="tNOeazSKzZnn_q3BJgtX-8">
          <mxGeometry width="50" height="50" relative="1" as="geometry">
            <mxPoint x="570" y="570" as="sourcePoint" />
            <mxPoint x="620" y="520" as="targetPoint" />
          </mxGeometry>
        </mxCell>
        <mxCell id="tNOeazSKzZnn_q3BJgtX-21" value="&lt;b&gt;TRACKED IN&lt;/b&gt;" style="rhombus;whiteSpace=wrap;html=1;" vertex="1" parent="1">
          <mxGeometry x="670" y="560" width="100" height="65" as="geometry" />
        </mxCell>
        <mxCell id="tNOeazSKzZnn_q3BJgtX-22" value="" style="endArrow=classic;html=1;rounded=0;exitX=0.5;exitY=1;exitDx=0;exitDy=0;entryX=0.5;entryY=0;entryDx=0;entryDy=0;" edge="1" parent="1" source="tNOeazSKzZnn_q3BJgtX-21" target="tNOeazSKzZnn_q3BJgtX-7">
          <mxGeometry width="50" height="50" relative="1" as="geometry">
            <mxPoint x="669" y="575" as="sourcePoint" />
            <mxPoint x="719" y="525" as="targetPoint" />
          </mxGeometry>
        </mxCell>
        <mxCell id="tNOeazSKzZnn_q3BJgtX-23" value="" style="endArrow=classic;html=1;rounded=0;entryX=0.5;entryY=0;entryDx=0;entryDy=0;exitX=0.5;exitY=1;exitDx=0;exitDy=0;" edge="1" parent="1" source="tNOeazSKzZnn_q3BJgtX-8" target="tNOeazSKzZnn_q3BJgtX-21">
          <mxGeometry width="50" height="50" relative="1" as="geometry">
            <mxPoint x="580" y="580" as="sourcePoint" />
            <mxPoint x="630" y="530" as="targetPoint" />
          </mxGeometry>
        </mxCell>
        <mxCell id="tNOeazSKzZnn_q3BJgtX-24" value="&lt;b&gt;UPDATED BY&lt;/b&gt;" style="rhombus;whiteSpace=wrap;html=1;" vertex="1" parent="1">
          <mxGeometry x="400" y="810" width="100" height="65" as="geometry" />
        </mxCell>
        <mxCell id="tNOeazSKzZnn_q3BJgtX-25" value="" style="endArrow=classic;html=1;rounded=0;entryX=1;entryY=0.5;entryDx=0;entryDy=0;exitX=0;exitY=0.5;exitDx=0;exitDy=0;" edge="1" parent="1" source="tNOeazSKzZnn_q3BJgtX-24" target="tNOeazSKzZnn_q3BJgtX-5">
          <mxGeometry width="50" height="50" relative="1" as="geometry">
            <mxPoint x="400" y="800" as="sourcePoint" />
            <mxPoint x="450" y="750" as="targetPoint" />
          </mxGeometry>
        </mxCell>
        <mxCell id="tNOeazSKzZnn_q3BJgtX-26" value="" style="endArrow=classic;html=1;rounded=0;entryX=1;entryY=0.5;entryDx=0;entryDy=0;exitX=0;exitY=0.5;exitDx=0;exitDy=0;" edge="1" parent="1" source="tNOeazSKzZnn_q3BJgtX-7" target="tNOeazSKzZnn_q3BJgtX-24">
          <mxGeometry width="50" height="50" relative="1" as="geometry">
            <mxPoint x="470" y="830" as="sourcePoint" />
            <mxPoint x="520" y="780" as="targetPoint" />
          </mxGeometry>
        </mxCell>
        <mxCell id="tNOeazSKzZnn_q3BJgtX-27" value="&lt;b&gt;SENT TO&lt;/b&gt;" style="rhombus;whiteSpace=wrap;html=1;" vertex="1" parent="1">
          <mxGeometry x="-110" y="480" width="100" height="65" as="geometry" />
        </mxCell>
        <mxCell id="tNOeazSKzZnn_q3BJgtX-28" value="" style="endArrow=classic;html=1;rounded=0;entryX=0.5;entryY=1;entryDx=0;entryDy=0;exitX=0.5;exitY=0;exitDx=0;exitDy=0;" edge="1" parent="1" source="tNOeazSKzZnn_q3BJgtX-5" target="tNOeazSKzZnn_q3BJgtX-27">
          <mxGeometry width="50" height="50" relative="1" as="geometry">
            <mxPoint x="150" y="650" as="sourcePoint" />
            <mxPoint x="200" y="600" as="targetPoint" />
          </mxGeometry>
        </mxCell>
        <mxCell id="tNOeazSKzZnn_q3BJgtX-29" value="" style="endArrow=classic;html=1;rounded=0;entryX=0.5;entryY=1;entryDx=0;entryDy=0;exitX=0.5;exitY=0;exitDx=0;exitDy=0;" edge="1" parent="1" source="tNOeazSKzZnn_q3BJgtX-27" target="tNOeazSKzZnn_q3BJgtX-1">
          <mxGeometry width="50" height="50" relative="1" as="geometry">
            <mxPoint x="90" y="620" as="sourcePoint" />
            <mxPoint x="140" y="570" as="targetPoint" />
          </mxGeometry>
        </mxCell>
        <mxCell id="tNOeazSKzZnn_q3BJgtX-30" value="&lt;b&gt;CONTAINS&lt;/b&gt;" style="rhombus;whiteSpace=wrap;html=1;" vertex="1" parent="1">
          <mxGeometry x="445" y="560" width="100" height="65" as="geometry" />
        </mxCell>
        <mxCell id="tNOeazSKzZnn_q3BJgtX-31" value="" style="endArrow=classic;html=1;rounded=0;exitX=1;exitY=0;exitDx=0;exitDy=0;" edge="1" parent="1" source="tNOeazSKzZnn_q3BJgtX-5" target="tNOeazSKzZnn_q3BJgtX-30">
          <mxGeometry width="50" height="50" relative="1" as="geometry">
            <mxPoint x="380" y="590" as="sourcePoint" />
            <mxPoint x="430" y="540" as="targetPoint" />
          </mxGeometry>
        </mxCell>
        <mxCell id="tNOeazSKzZnn_q3BJgtX-32" value="" style="endArrow=classic;html=1;rounded=0;exitX=1;exitY=0;exitDx=0;exitDy=0;entryX=0.25;entryY=1;entryDx=0;entryDy=0;" edge="1" parent="1" source="tNOeazSKzZnn_q3BJgtX-30" target="tNOeazSKzZnn_q3BJgtX-8">
          <mxGeometry width="50" height="50" relative="1" as="geometry">
            <mxPoint x="630" y="500" as="sourcePoint" />
            <mxPoint x="680" y="450" as="targetPoint" />
          </mxGeometry>
        </mxCell>
        <mxCell id="tNOeazSKzZnn_q3BJgtX-33" value="&lt;b&gt;APPEARS IN&amp;nbsp;&lt;/b&gt;" style="rhombus;whiteSpace=wrap;html=1;" vertex="1" parent="1">
          <mxGeometry x="800" y="415" width="100" height="65" as="geometry" />
        </mxCell>
        <mxCell id="tNOeazSKzZnn_q3BJgtX-35" value="" style="endArrow=classic;html=1;rounded=0;entryX=0;entryY=0.5;entryDx=0;entryDy=0;exitX=1;exitY=0.5;exitDx=0;exitDy=0;" edge="1" parent="1" source="tNOeazSKzZnn_q3BJgtX-8" target="tNOeazSKzZnn_q3BJgtX-33">
          <mxGeometry width="50" height="50" relative="1" as="geometry">
            <mxPoint x="630" y="360" as="sourcePoint" />
            <mxPoint x="680" y="310" as="targetPoint" />
          </mxGeometry>
        </mxCell>
        <mxCell id="tNOeazSKzZnn_q3BJgtX-36" value="" style="endArrow=classic;html=1;rounded=0;exitX=1;exitY=0.5;exitDx=0;exitDy=0;entryX=0;entryY=0.5;entryDx=0;entryDy=0;" edge="1" parent="1" source="tNOeazSKzZnn_q3BJgtX-33" target="tNOeazSKzZnn_q3BJgtX-6">
          <mxGeometry width="50" height="50" relative="1" as="geometry">
            <mxPoint x="950" y="580" as="sourcePoint" />
            <mxPoint x="1000" y="530" as="targetPoint" />
          </mxGeometry>
        </mxCell>
        <mxCell id="tNOeazSKzZnn_q3BJgtX-37" value="&lt;b&gt;LINKED TO&lt;/b&gt;" style="rhombus;whiteSpace=wrap;html=1;" vertex="1" parent="1">
          <mxGeometry x="920" y="560" width="100" height="65" as="geometry" />
        </mxCell>
        <mxCell id="tNOeazSKzZnn_q3BJgtX-38" value="&lt;b&gt;FULFILLS&lt;/b&gt;" style="rhombus;whiteSpace=wrap;html=1;" vertex="1" parent="1">
          <mxGeometry x="1250" y="560" width="100" height="65" as="geometry" />
        </mxCell>
        <mxCell id="tNOeazSKzZnn_q3BJgtX-39" value="" style="endArrow=classic;html=1;rounded=0;entryX=0.5;entryY=0;entryDx=0;entryDy=0;exitX=1;exitY=1;exitDx=0;exitDy=0;" edge="1" parent="1" source="tNOeazSKzZnn_q3BJgtX-6" target="tNOeazSKzZnn_q3BJgtX-38">
          <mxGeometry width="50" height="50" relative="1" as="geometry">
            <mxPoint x="1180" y="590" as="sourcePoint" />
            <mxPoint x="1230" y="540" as="targetPoint" />
          </mxGeometry>
        </mxCell>
        <mxCell id="tNOeazSKzZnn_q3BJgtX-40" value="" style="endArrow=classic;html=1;rounded=0;exitX=0.5;exitY=1;exitDx=0;exitDy=0;entryX=1;entryY=0.5;entryDx=0;entryDy=0;" edge="1" parent="1" source="tNOeazSKzZnn_q3BJgtX-38" target="tNOeazSKzZnn_q3BJgtX-9">
          <mxGeometry width="50" height="50" relative="1" as="geometry">
            <mxPoint x="1240" y="780" as="sourcePoint" />
            <mxPoint x="1290" y="730" as="targetPoint" />
          </mxGeometry>
        </mxCell>
        <mxCell id="tNOeazSKzZnn_q3BJgtX-41" value="" style="endArrow=classic;html=1;rounded=0;entryX=0;entryY=0.5;entryDx=0;entryDy=0;exitX=0.5;exitY=1;exitDx=0;exitDy=0;" edge="1" parent="1" source="tNOeazSKzZnn_q3BJgtX-37" target="tNOeazSKzZnn_q3BJgtX-9">
          <mxGeometry width="50" height="50" relative="1" as="geometry">
            <mxPoint x="950" y="780" as="sourcePoint" />
            <mxPoint x="1000" y="730" as="targetPoint" />
          </mxGeometry>
        </mxCell>
        <mxCell id="tNOeazSKzZnn_q3BJgtX-42" value="" style="endArrow=classic;html=1;rounded=0;exitX=0;exitY=1;exitDx=0;exitDy=0;entryX=0.5;entryY=0;entryDx=0;entryDy=0;" edge="1" parent="1" source="tNOeazSKzZnn_q3BJgtX-6" target="tNOeazSKzZnn_q3BJgtX-37">
          <mxGeometry width="50" height="50" relative="1" as="geometry">
            <mxPoint x="1090" y="610" as="sourcePoint" />
            <mxPoint x="1140" y="560" as="targetPoint" />
          </mxGeometry>
        </mxCell>
        <mxCell id="tNOeazSKzZnn_q3BJgtX-43" value="" style="endArrow=none;html=1;rounded=0;entryX=0;entryY=0.5;entryDx=0;entryDy=0;exitX=1;exitY=0;exitDx=0;exitDy=0;" edge="1" parent="1" source="tNOeazSKzZnn_q3BJgtX-8" target="tNOeazSKzZnn_q3BJgtX-10">
          <mxGeometry width="50" height="50" relative="1" as="geometry">
            <mxPoint x="550" y="390" as="sourcePoint" />
            <mxPoint x="580" y="170" as="targetPoint" />
          </mxGeometry>
        </mxCell>
        <mxCell id="tNOeazSKzZnn_q3BJgtX-44" value="" style="endArrow=none;html=1;rounded=0;entryX=1;entryY=0.5;entryDx=0;entryDy=0;exitX=0;exitY=0;exitDx=0;exitDy=0;" edge="1" parent="1" source="tNOeazSKzZnn_q3BJgtX-6" target="tNOeazSKzZnn_q3BJgtX-10">
          <mxGeometry width="50" height="50" relative="1" as="geometry">
            <mxPoint x="1240" y="190" as="sourcePoint" />
            <mxPoint x="1290" y="140" as="targetPoint" />
          </mxGeometry>
        </mxCell>
        <mxCell id="tNOeazSKzZnn_q3BJgtX-45" value="" style="endArrow=none;html=1;rounded=0;exitX=0.75;exitY=0;exitDx=0;exitDy=0;entryX=0.5;entryY=1;entryDx=0;entryDy=0;" edge="1" parent="1" source="tNOeazSKzZnn_q3BJgtX-5" target="tNOeazSKzZnn_q3BJgtX-4">
          <mxGeometry width="50" height="50" relative="1" as="geometry">
            <mxPoint x="50" y="590" as="sourcePoint" />
            <mxPoint x="100" y="540" as="targetPoint" />
          </mxGeometry>
        </mxCell>
        <mxCell id="tNOeazSKzZnn_q3BJgtX-46" value="" style="endArrow=none;html=1;rounded=0;exitX=0;exitY=1;exitDx=0;exitDy=0;entryX=1;entryY=0.5;entryDx=0;entryDy=0;" edge="1" parent="1" source="tNOeazSKzZnn_q3BJgtX-8" target="tNOeazSKzZnn_q3BJgtX-4">
          <mxGeometry width="50" height="50" relative="1" as="geometry">
            <mxPoint x="330" y="550" as="sourcePoint" />
            <mxPoint x="270" y="568" as="targetPoint" />
            <Array as="points" />
          </mxGeometry>
        </mxCell>
        <mxCell id="tNOeazSKzZnn_q3BJgtX-47" value="&lt;u&gt;ShipmentID&lt;/u&gt;" style="ellipse;whiteSpace=wrap;html=1;" vertex="1" parent="1">
          <mxGeometry x="910" y="840" width="120" height="40" as="geometry" />
        </mxCell>
        <mxCell id="tNOeazSKzZnn_q3BJgtX-48" value="SalesOrderID" style="ellipse;whiteSpace=wrap;html=1;" vertex="1" parent="1">
          <mxGeometry x="910" y="890" width="120" height="40" as="geometry" />
        </mxCell>
        <mxCell id="tNOeazSKzZnn_q3BJgtX-50" value="ShipmentDate" style="ellipse;whiteSpace=wrap;html=1;" vertex="1" parent="1">
          <mxGeometry x="1000" y="930" width="120" height="40" as="geometry" />
        </mxCell>
        <mxCell id="tNOeazSKzZnn_q3BJgtX-51" value="Status" style="ellipse;whiteSpace=wrap;html=1;" vertex="1" parent="1">
          <mxGeometry x="1130" y="930" width="120" height="40" as="geometry" />
        </mxCell>
        <mxCell id="tNOeazSKzZnn_q3BJgtX-52" value="TrackingNumber" style="ellipse;whiteSpace=wrap;html=1;" vertex="1" parent="1">
          <mxGeometry x="1242" y="890" width="120" height="40" as="geometry" />
        </mxCell>
        <mxCell id="tNOeazSKzZnn_q3BJgtX-53" value="ShippmentMethod" style="ellipse;whiteSpace=wrap;html=1;" vertex="1" parent="1">
          <mxGeometry x="1247" y="840" width="120" height="40" as="geometry" />
        </mxCell>
        <mxCell id="tNOeazSKzZnn_q3BJgtX-54" value="" style="endArrow=none;html=1;rounded=0;entryX=0;entryY=0.75;entryDx=0;entryDy=0;exitX=1;exitY=0.5;exitDx=0;exitDy=0;" edge="1" parent="1" source="tNOeazSKzZnn_q3BJgtX-47" target="tNOeazSKzZnn_q3BJgtX-9">
          <mxGeometry width="50" height="50" relative="1" as="geometry">
            <mxPoint x="890" y="1010" as="sourcePoint" />
            <mxPoint x="940" y="960" as="targetPoint" />
          </mxGeometry>
        </mxCell>
        <mxCell id="tNOeazSKzZnn_q3BJgtX-55" value="" style="endArrow=none;html=1;rounded=0;entryX=1;entryY=0.75;entryDx=0;entryDy=0;exitX=0;exitY=0.5;exitDx=0;exitDy=0;" edge="1" parent="1" source="tNOeazSKzZnn_q3BJgtX-53" target="tNOeazSKzZnn_q3BJgtX-9">
          <mxGeometry width="50" height="50" relative="1" as="geometry">
            <mxPoint x="1242" y="1030" as="sourcePoint" />
            <mxPoint x="1292" y="980" as="targetPoint" />
          </mxGeometry>
        </mxCell>
        <mxCell id="tNOeazSKzZnn_q3BJgtX-56" value="" style="endArrow=none;html=1;rounded=0;entryX=1;entryY=1;entryDx=0;entryDy=0;exitX=0;exitY=0;exitDx=0;exitDy=0;" edge="1" parent="1" source="tNOeazSKzZnn_q3BJgtX-52" target="tNOeazSKzZnn_q3BJgtX-9">
          <mxGeometry width="50" height="50" relative="1" as="geometry">
            <mxPoint x="1170" y="935" as="sourcePoint" />
            <mxPoint x="1220" y="885" as="targetPoint" />
          </mxGeometry>
        </mxCell>
        <mxCell id="tNOeazSKzZnn_q3BJgtX-57" value="" style="endArrow=none;html=1;rounded=0;exitX=0.5;exitY=1;exitDx=0;exitDy=0;entryX=0.5;entryY=0;entryDx=0;entryDy=0;" edge="1" parent="1" source="tNOeazSKzZnn_q3BJgtX-9" target="tNOeazSKzZnn_q3BJgtX-51">
          <mxGeometry width="50" height="50" relative="1" as="geometry">
            <mxPoint x="890" y="1040" as="sourcePoint" />
            <mxPoint x="940" y="990" as="targetPoint" />
          </mxGeometry>
        </mxCell>
        <mxCell id="tNOeazSKzZnn_q3BJgtX-58" value="" style="endArrow=none;html=1;rounded=0;entryX=0.25;entryY=1;entryDx=0;entryDy=0;exitX=0.5;exitY=0;exitDx=0;exitDy=0;" edge="1" parent="1" source="tNOeazSKzZnn_q3BJgtX-50" target="tNOeazSKzZnn_q3BJgtX-9">
          <mxGeometry width="50" height="50" relative="1" as="geometry">
            <mxPoint x="1090" y="920" as="sourcePoint" />
            <mxPoint x="1140" y="870" as="targetPoint" />
          </mxGeometry>
        </mxCell>
        <mxCell id="tNOeazSKzZnn_q3BJgtX-59" value="" style="endArrow=none;html=1;rounded=0;entryX=0;entryY=1;entryDx=0;entryDy=0;exitX=1;exitY=0;exitDx=0;exitDy=0;" edge="1" parent="1" source="tNOeazSKzZnn_q3BJgtX-48" target="tNOeazSKzZnn_q3BJgtX-9">
          <mxGeometry width="50" height="50" relative="1" as="geometry">
            <mxPoint x="980" y="1050" as="sourcePoint" />
            <mxPoint x="1030" y="1000" as="targetPoint" />
          </mxGeometry>
        </mxCell>
        <mxCell id="tNOeazSKzZnn_q3BJgtX-60" value="SalesOrderID" style="ellipse;whiteSpace=wrap;html=1;" vertex="1" parent="1">
          <mxGeometry x="660" y="250" width="120" height="40" as="geometry" />
        </mxCell>
        <mxCell id="tNOeazSKzZnn_q3BJgtX-61" value="&lt;u&gt;SalesOrderDetailsID&lt;/u&gt;" style="ellipse;whiteSpace=wrap;html=1;" vertex="1" parent="1">
          <mxGeometry x="720" y="200" width="120" height="40" as="geometry" />
        </mxCell>
        <mxCell id="tNOeazSKzZnn_q3BJgtX-62" value="ProductID" style="ellipse;whiteSpace=wrap;html=1;" vertex="1" parent="1">
          <mxGeometry x="850" y="200" width="120" height="40" as="geometry" />
        </mxCell>
        <mxCell id="tNOeazSKzZnn_q3BJgtX-63" value="UnitPrice" style="ellipse;whiteSpace=wrap;html=1;" vertex="1" parent="1">
          <mxGeometry x="920" y="250" width="120" height="40" as="geometry" />
        </mxCell>
        <mxCell id="tNOeazSKzZnn_q3BJgtX-64" value="" style="endArrow=none;html=1;rounded=0;exitX=1;exitY=0;exitDx=0;exitDy=0;entryX=0;entryY=1;entryDx=0;entryDy=0;" edge="1" parent="1" source="tNOeazSKzZnn_q3BJgtX-10" target="tNOeazSKzZnn_q3BJgtX-63">
          <mxGeometry width="50" height="50" relative="1" as="geometry">
            <mxPoint x="980" y="360" as="sourcePoint" />
            <mxPoint x="1030" y="310" as="targetPoint" />
          </mxGeometry>
        </mxCell>
        <mxCell id="tNOeazSKzZnn_q3BJgtX-65" value="" style="endArrow=none;html=1;rounded=0;exitX=0.75;exitY=0;exitDx=0;exitDy=0;entryX=0.446;entryY=1.034;entryDx=0;entryDy=0;entryPerimeter=0;" edge="1" parent="1" source="tNOeazSKzZnn_q3BJgtX-10" target="tNOeazSKzZnn_q3BJgtX-62">
          <mxGeometry width="50" height="50" relative="1" as="geometry">
            <mxPoint x="840" y="295" as="sourcePoint" />
            <mxPoint x="890" y="245" as="targetPoint" />
          </mxGeometry>
        </mxCell>
        <mxCell id="tNOeazSKzZnn_q3BJgtX-66" value="" style="endArrow=none;html=1;rounded=0;exitX=0.25;exitY=0;exitDx=0;exitDy=0;entryX=0.5;entryY=1;entryDx=0;entryDy=0;" edge="1" parent="1" source="tNOeazSKzZnn_q3BJgtX-10" target="tNOeazSKzZnn_q3BJgtX-61">
          <mxGeometry width="50" height="50" relative="1" as="geometry">
            <mxPoint x="800" y="290" as="sourcePoint" />
            <mxPoint x="850" y="240" as="targetPoint" />
          </mxGeometry>
        </mxCell>
        <mxCell id="tNOeazSKzZnn_q3BJgtX-67" value="" style="endArrow=none;html=1;rounded=0;entryX=0;entryY=0;entryDx=0;entryDy=0;exitX=1;exitY=1;exitDx=0;exitDy=0;" edge="1" parent="1" source="tNOeazSKzZnn_q3BJgtX-60" target="tNOeazSKzZnn_q3BJgtX-10">
          <mxGeometry width="50" height="50" relative="1" as="geometry">
            <mxPoint x="580" y="350" as="sourcePoint" />
            <mxPoint x="630" y="300" as="targetPoint" />
          </mxGeometry>
        </mxCell>
        <mxCell id="tNOeazSKzZnn_q3BJgtX-68" value="Quantity" style="ellipse;whiteSpace=wrap;html=1;" vertex="1" parent="1">
          <mxGeometry x="780" y="800" width="120" height="40" as="geometry" />
        </mxCell>
        <mxCell id="tNOeazSKzZnn_q3BJgtX-69" value="&lt;span style=&quot;font-weight: normal;&quot;&gt;LastUpdated&lt;/span&gt;" style="ellipse;whiteSpace=wrap;html=1;fontStyle=1" vertex="1" parent="1">
          <mxGeometry x="650" y="800" width="120" height="40" as="geometry" />
        </mxCell>
        <mxCell id="tNOeazSKzZnn_q3BJgtX-70" value="&lt;u&gt;InventoryID&lt;/u&gt;" style="ellipse;whiteSpace=wrap;html=1;" vertex="1" parent="1">
          <mxGeometry x="890" y="770" width="120" height="40" as="geometry" />
        </mxCell>
        <mxCell id="tNOeazSKzZnn_q3BJgtX-71" value="ProductID" style="ellipse;whiteSpace=wrap;html=1;" vertex="1" parent="1">
          <mxGeometry x="890" y="720" width="120" height="40" as="geometry" />
        </mxCell>
        <mxCell id="tNOeazSKzZnn_q3BJgtX-72" value="" style="endArrow=none;html=1;rounded=0;exitX=1;exitY=0.5;exitDx=0;exitDy=0;entryX=0;entryY=0.5;entryDx=0;entryDy=0;" edge="1" parent="1" source="tNOeazSKzZnn_q3BJgtX-7" target="tNOeazSKzZnn_q3BJgtX-71">
          <mxGeometry width="50" height="50" relative="1" as="geometry">
            <mxPoint x="870" y="710" as="sourcePoint" />
            <mxPoint x="920" y="660" as="targetPoint" />
          </mxGeometry>
        </mxCell>
        <mxCell id="tNOeazSKzZnn_q3BJgtX-73" value="" style="endArrow=none;html=1;rounded=0;entryX=1;entryY=1;entryDx=0;entryDy=0;exitX=0;exitY=0.5;exitDx=0;exitDy=0;" edge="1" parent="1" source="tNOeazSKzZnn_q3BJgtX-70" target="tNOeazSKzZnn_q3BJgtX-7">
          <mxGeometry width="50" height="50" relative="1" as="geometry">
            <mxPoint x="840" y="890" as="sourcePoint" />
            <mxPoint x="890" y="840" as="targetPoint" />
          </mxGeometry>
        </mxCell>
        <mxCell id="tNOeazSKzZnn_q3BJgtX-74" value="" style="endArrow=none;html=1;rounded=0;entryX=0.75;entryY=1;entryDx=0;entryDy=0;exitX=0.5;exitY=0;exitDx=0;exitDy=0;" edge="1" parent="1" source="tNOeazSKzZnn_q3BJgtX-68" target="tNOeazSKzZnn_q3BJgtX-7">
          <mxGeometry width="50" height="50" relative="1" as="geometry">
            <mxPoint x="610" y="940" as="sourcePoint" />
            <mxPoint x="660" y="890" as="targetPoint" />
          </mxGeometry>
        </mxCell>
        <mxCell id="tNOeazSKzZnn_q3BJgtX-75" value="" style="endArrow=none;html=1;rounded=0;exitX=0.5;exitY=0;exitDx=0;exitDy=0;" edge="1" parent="1" source="tNOeazSKzZnn_q3BJgtX-69" target="tNOeazSKzZnn_q3BJgtX-7">
          <mxGeometry width="50" height="50" relative="1" as="geometry">
            <mxPoint x="590" y="900" as="sourcePoint" />
            <mxPoint x="640" y="850" as="targetPoint" />
          </mxGeometry>
        </mxCell>
        <mxCell id="tNOeazSKzZnn_q3BJgtX-76" value="SupplierID" style="ellipse;whiteSpace=wrap;html=1;" vertex="1" parent="1">
          <mxGeometry x="-130" y="690" width="120" height="40" as="geometry" />
        </mxCell>
        <mxCell id="tNOeazSKzZnn_q3BJgtX-77" value="OrderDate" style="ellipse;whiteSpace=wrap;html=1;" vertex="1" parent="1">
          <mxGeometry x="-160" y="740" width="120" height="40" as="geometry" />
        </mxCell>
        <mxCell id="tNOeazSKzZnn_q3BJgtX-78" value="&lt;u&gt;OrderID&lt;/u&gt;" style="ellipse;whiteSpace=wrap;html=1;" vertex="1" parent="1">
          <mxGeometry x="-150" y="800" width="120" height="40" as="geometry" />
        </mxCell>
        <mxCell id="tNOeazSKzZnn_q3BJgtX-79" value="Status" style="ellipse;whiteSpace=wrap;html=1;" vertex="1" parent="1">
          <mxGeometry x="-40" y="830" width="120" height="40" as="geometry" />
        </mxCell>
        <mxCell id="tNOeazSKzZnn_q3BJgtX-80" value="TotalAmount" style="ellipse;whiteSpace=wrap;html=1;" vertex="1" parent="1">
          <mxGeometry x="90" y="830" width="120" height="40" as="geometry" />
        </mxCell>
        <mxCell id="tNOeazSKzZnn_q3BJgtX-81" value="" style="endArrow=none;html=1;rounded=0;entryX=0;entryY=0.5;entryDx=0;entryDy=0;exitX=1;exitY=0.5;exitDx=0;exitDy=0;" edge="1" parent="1" source="tNOeazSKzZnn_q3BJgtX-76" target="tNOeazSKzZnn_q3BJgtX-5">
          <mxGeometry width="50" height="50" relative="1" as="geometry">
            <mxPoint x="-30" y="750" as="sourcePoint" />
            <mxPoint x="20" y="700" as="targetPoint" />
          </mxGeometry>
        </mxCell>
        <mxCell id="tNOeazSKzZnn_q3BJgtX-82" value="" style="endArrow=none;html=1;rounded=0;entryX=0;entryY=0.75;entryDx=0;entryDy=0;exitX=1;exitY=0.5;exitDx=0;exitDy=0;" edge="1" parent="1" source="tNOeazSKzZnn_q3BJgtX-77" target="tNOeazSKzZnn_q3BJgtX-5">
          <mxGeometry width="50" height="50" relative="1" as="geometry">
            <mxPoint x="-180" y="940" as="sourcePoint" />
            <mxPoint x="-130" y="890" as="targetPoint" />
          </mxGeometry>
        </mxCell>
        <mxCell id="tNOeazSKzZnn_q3BJgtX-83" value="" style="endArrow=none;html=1;rounded=0;entryX=0.25;entryY=1;entryDx=0;entryDy=0;exitX=0.5;exitY=0;exitDx=0;exitDy=0;" edge="1" parent="1" source="tNOeazSKzZnn_q3BJgtX-79" target="tNOeazSKzZnn_q3BJgtX-5">
          <mxGeometry width="50" height="50" relative="1" as="geometry">
            <mxPoint x="-90" y="950" as="sourcePoint" />
            <mxPoint x="-40" y="900" as="targetPoint" />
          </mxGeometry>
        </mxCell>
        <mxCell id="tNOeazSKzZnn_q3BJgtX-84" value="" style="endArrow=none;html=1;rounded=0;entryX=0;entryY=1;entryDx=0;entryDy=0;exitX=1;exitY=0;exitDx=0;exitDy=0;" edge="1" parent="1" source="tNOeazSKzZnn_q3BJgtX-78" target="tNOeazSKzZnn_q3BJgtX-5">
          <mxGeometry width="50" height="50" relative="1" as="geometry">
            <mxPoint x="-100" y="920" as="sourcePoint" />
            <mxPoint x="-50" y="870" as="targetPoint" />
          </mxGeometry>
        </mxCell>
        <mxCell id="tNOeazSKzZnn_q3BJgtX-85" value="" style="endArrow=none;html=1;rounded=0;entryX=0.75;entryY=1;entryDx=0;entryDy=0;exitX=0.5;exitY=0;exitDx=0;exitDy=0;" edge="1" parent="1" source="tNOeazSKzZnn_q3BJgtX-80" target="tNOeazSKzZnn_q3BJgtX-5">
          <mxGeometry width="50" height="50" relative="1" as="geometry">
            <mxPoint x="-30" y="950" as="sourcePoint" />
            <mxPoint x="20" y="900" as="targetPoint" />
          </mxGeometry>
        </mxCell>
        <mxCell id="tNOeazSKzZnn_q3BJgtX-86" value="UnitPrice" style="ellipse;whiteSpace=wrap;html=1;" vertex="1" parent="1">
          <mxGeometry x="10" y="585" width="120" height="40" as="geometry" />
        </mxCell>
        <mxCell id="tNOeazSKzZnn_q3BJgtX-87" value="&lt;u&gt;OrderDetailID&lt;/u&gt;" style="ellipse;whiteSpace=wrap;html=1;" vertex="1" parent="1">
          <mxGeometry y="530" width="120" height="40" as="geometry" />
        </mxCell>
        <mxCell id="tNOeazSKzZnn_q3BJgtX-88" value="Quantity" style="ellipse;whiteSpace=wrap;html=1;" vertex="1" parent="1">
          <mxGeometry x="10" y="480" width="120" height="40" as="geometry" />
        </mxCell>
        <mxCell id="tNOeazSKzZnn_q3BJgtX-89" value="ProductID" style="ellipse;whiteSpace=wrap;html=1;" vertex="1" parent="1">
          <mxGeometry x="120" y="450" width="120" height="40" as="geometry" />
        </mxCell>
        <mxCell id="tNOeazSKzZnn_q3BJgtX-90" value="OrderID" style="ellipse;whiteSpace=wrap;html=1;" vertex="1" parent="1">
          <mxGeometry x="240" y="470" width="120" height="40" as="geometry" />
        </mxCell>
        <mxCell id="tNOeazSKzZnn_q3BJgtX-91" value="" style="endArrow=none;html=1;rounded=0;exitX=1;exitY=0.5;exitDx=0;exitDy=0;entryX=0;entryY=0.5;entryDx=0;entryDy=0;" edge="1" parent="1" source="tNOeazSKzZnn_q3BJgtX-86" target="tNOeazSKzZnn_q3BJgtX-4">
          <mxGeometry width="50" height="50" relative="1" as="geometry">
            <mxPoint x="180" y="540" as="sourcePoint" />
            <mxPoint x="230" y="490" as="targetPoint" />
          </mxGeometry>
        </mxCell>
        <mxCell id="tNOeazSKzZnn_q3BJgtX-92" value="" style="endArrow=none;html=1;rounded=0;exitX=1;exitY=0.5;exitDx=0;exitDy=0;entryX=0;entryY=0;entryDx=0;entryDy=0;" edge="1" parent="1" source="tNOeazSKzZnn_q3BJgtX-87" target="tNOeazSKzZnn_q3BJgtX-4">
          <mxGeometry width="50" height="50" relative="1" as="geometry">
            <mxPoint x="150" y="560" as="sourcePoint" />
            <mxPoint x="200" y="510" as="targetPoint" />
          </mxGeometry>
        </mxCell>
        <mxCell id="tNOeazSKzZnn_q3BJgtX-93" value="" style="endArrow=none;html=1;rounded=0;entryX=1;entryY=1;entryDx=0;entryDy=0;exitX=0.25;exitY=0;exitDx=0;exitDy=0;" edge="1" parent="1" source="tNOeazSKzZnn_q3BJgtX-4" target="tNOeazSKzZnn_q3BJgtX-88">
          <mxGeometry width="50" height="50" relative="1" as="geometry">
            <mxPoint x="230" y="550" as="sourcePoint" />
            <mxPoint x="280" y="500" as="targetPoint" />
          </mxGeometry>
        </mxCell>
        <mxCell id="tNOeazSKzZnn_q3BJgtX-94" value="" style="endArrow=none;html=1;rounded=0;exitX=0.5;exitY=0;exitDx=0;exitDy=0;" edge="1" parent="1" source="tNOeazSKzZnn_q3BJgtX-4" target="tNOeazSKzZnn_q3BJgtX-89">
          <mxGeometry width="50" height="50" relative="1" as="geometry">
            <mxPoint x="180" y="530" as="sourcePoint" />
            <mxPoint x="230" y="480" as="targetPoint" />
          </mxGeometry>
        </mxCell>
        <mxCell id="tNOeazSKzZnn_q3BJgtX-95" value="" style="endArrow=none;html=1;rounded=0;entryX=0;entryY=1;entryDx=0;entryDy=0;exitX=0.701;exitY=-0.008;exitDx=0;exitDy=0;exitPerimeter=0;" edge="1" parent="1" source="tNOeazSKzZnn_q3BJgtX-4" target="tNOeazSKzZnn_q3BJgtX-90">
          <mxGeometry width="50" height="50" relative="1" as="geometry">
            <mxPoint x="250" y="570" as="sourcePoint" />
            <mxPoint x="300" y="520" as="targetPoint" />
          </mxGeometry>
        </mxCell>
        <mxCell id="tNOeazSKzZnn_q3BJgtX-97" value="Price" style="ellipse;whiteSpace=wrap;html=1;" vertex="1" parent="1">
          <mxGeometry x="280" y="310" width="120" height="40" as="geometry" />
        </mxCell>
        <mxCell id="tNOeazSKzZnn_q3BJgtX-98" value="ProductName" style="ellipse;whiteSpace=wrap;html=1;" vertex="1" parent="1">
          <mxGeometry x="325" y="270" width="120" height="40" as="geometry" />
        </mxCell>
        <mxCell id="tNOeazSKzZnn_q3BJgtX-99" value="Category" style="ellipse;whiteSpace=wrap;html=1;" vertex="1" parent="1">
          <mxGeometry x="520" y="270" width="120" height="40" as="geometry" />
        </mxCell>
        <mxCell id="tNOeazSKzZnn_q3BJgtX-100" value="QuantityInStock" style="ellipse;whiteSpace=wrap;html=1;" vertex="1" parent="1">
          <mxGeometry x="570" y="310" width="120" height="40" as="geometry" />
        </mxCell>
        <mxCell id="tNOeazSKzZnn_q3BJgtX-101" value="&lt;u&gt;ProductID&lt;/u&gt;" style="ellipse;whiteSpace=wrap;html=1;" vertex="1" parent="1">
          <mxGeometry x="425" y="240" width="120" height="40" as="geometry" />
        </mxCell>
        <mxCell id="tNOeazSKzZnn_q3BJgtX-102" value="" style="endArrow=none;html=1;rounded=0;entryX=0;entryY=1;entryDx=0;entryDy=0;exitX=0.649;exitY=0.002;exitDx=0;exitDy=0;exitPerimeter=0;" edge="1" parent="1" source="tNOeazSKzZnn_q3BJgtX-8" target="tNOeazSKzZnn_q3BJgtX-99">
          <mxGeometry width="50" height="50" relative="1" as="geometry">
            <mxPoint x="460" y="370" as="sourcePoint" />
            <mxPoint x="510" y="320" as="targetPoint" />
          </mxGeometry>
        </mxCell>
        <mxCell id="tNOeazSKzZnn_q3BJgtX-103" value="" style="endArrow=none;html=1;rounded=0;entryX=0.5;entryY=1;entryDx=0;entryDy=0;exitX=0.5;exitY=0;exitDx=0;exitDy=0;" edge="1" parent="1" source="tNOeazSKzZnn_q3BJgtX-8" target="tNOeazSKzZnn_q3BJgtX-101">
          <mxGeometry width="50" height="50" relative="1" as="geometry">
            <mxPoint x="430" y="360" as="sourcePoint" />
            <mxPoint x="480" y="310" as="targetPoint" />
          </mxGeometry>
        </mxCell>
        <mxCell id="tNOeazSKzZnn_q3BJgtX-104" value="" style="endArrow=none;html=1;rounded=0;entryX=1;entryY=1;entryDx=0;entryDy=0;exitX=0.25;exitY=0;exitDx=0;exitDy=0;" edge="1" parent="1" source="tNOeazSKzZnn_q3BJgtX-8" target="tNOeazSKzZnn_q3BJgtX-98">
          <mxGeometry width="50" height="50" relative="1" as="geometry">
            <mxPoint x="370" y="400" as="sourcePoint" />
            <mxPoint x="420" y="350" as="targetPoint" />
          </mxGeometry>
        </mxCell>
        <mxCell id="tNOeazSKzZnn_q3BJgtX-105" value="" style="endArrow=none;html=1;rounded=0;entryX=0;entryY=0.5;entryDx=0;entryDy=0;exitX=0.75;exitY=0;exitDx=0;exitDy=0;" edge="1" parent="1" source="tNOeazSKzZnn_q3BJgtX-8" target="tNOeazSKzZnn_q3BJgtX-100">
          <mxGeometry width="50" height="50" relative="1" as="geometry">
            <mxPoint x="490" y="380" as="sourcePoint" />
            <mxPoint x="540" y="330" as="targetPoint" />
          </mxGeometry>
        </mxCell>
        <mxCell id="tNOeazSKzZnn_q3BJgtX-106" value="" style="endArrow=none;html=1;rounded=0;entryX=1;entryY=1;entryDx=0;entryDy=0;exitX=0;exitY=0;exitDx=0;exitDy=0;" edge="1" parent="1" source="tNOeazSKzZnn_q3BJgtX-8" target="tNOeazSKzZnn_q3BJgtX-97">
          <mxGeometry width="50" height="50" relative="1" as="geometry">
            <mxPoint x="360" y="400" as="sourcePoint" />
            <mxPoint x="410" y="350" as="targetPoint" />
          </mxGeometry>
        </mxCell>
      </root>
    </mxGraphModel>
  </diagram>
</mxfile>
